<?xml version="1.0" encoding="utf-8"?>
<!-- Generator: Adobe Illustrator 25.3.1, SVG Export Plug-In . SVG Version: 6.00 Build 0)  -->
<svg version="1.1" id="Layer_1" xmlns="http://www.w3.org/2000/svg" xmlns:xlink="http://www.w3.org/1999/xlink" x="0px" y="0px"
	 viewBox="0 0 203.86 72.89" style="enable-background:new 0 0 203.86 72.89;" xml:space="preserve">
<style type="text/css">
	.st0{fill:#6A2C91;}
	.st1{fill:#64B145;}
</style>
<g>
	<path class="st0" d="M34.17,52.94c-1.24,1.29-3.04,2.44-5.39,3.47c-2.36,1.02-5.33,1.52-8.93,1.49c-5.1-0.05-9.22-1.91-12.39-5.6
		C4.3,48.61,2.74,43.84,2.8,37.99l0.01-1.39c0.05-6.06,1.67-10.97,4.86-14.74c3.19-3.77,7.32-5.63,12.4-5.59
		c2.95,0.03,5.65,0.55,8.08,1.59c2.43,1.03,4.46,2.41,6.06,4.15l-0.07,8.14l-5.6-0.05l-1.02-5.43c-0.68-0.64-1.59-1.15-2.72-1.54
		c-1.13-0.39-2.42-0.59-3.89-0.6c-3.3-0.03-5.88,1.26-7.73,3.85c-1.85,2.6-2.8,6.01-2.84,10.23l-0.01,1.44
		c-0.04,4.11,0.83,7.41,2.61,9.88c1.78,2.47,4.35,3.72,7.74,3.75c1.52,0.01,2.75-0.11,3.7-0.38c0.94-0.27,1.68-0.59,2.22-0.95
		l0.06-6.86l-5.38-0.49l0.05-5.7L34.3,37.4L34.17,52.94z"/>
	<path class="st0" d="M37.16,41.88c0.04-4.48,1.24-8.15,3.61-10.99c2.37-2.84,5.61-4.24,9.74-4.21c4.15,0.04,7.38,1.49,9.69,4.37
		c2.31,2.87,3.45,6.56,3.41,11.06l0,0.58c-0.04,4.52-1.24,8.19-3.61,11.01c-2.37,2.82-5.6,4.22-9.71,4.18
		c-4.16-0.04-7.4-1.49-9.72-4.35c-2.31-2.86-3.45-6.56-3.41-11.08L37.16,41.88z M44.73,42.53c-0.03,2.74,0.4,4.95,1.29,6.61
		c0.88,1.67,2.33,2.51,4.33,2.52c1.95,0.02,3.39-0.8,4.31-2.46c0.92-1.66,1.39-3.85,1.42-6.57l0-0.58c0.02-2.67-0.41-4.85-1.31-6.54
		c-0.9-1.69-2.34-2.55-4.31-2.57c-1.97-0.02-3.41,0.81-4.32,2.49c-0.91,1.68-1.38,3.85-1.41,6.52L44.73,42.53z"/>
	<path class="st0" d="M65.85,41.88c0.04-4.48,1.24-8.15,3.61-10.99c2.37-2.84,5.61-4.24,9.74-4.21c4.14,0.04,7.37,1.49,9.69,4.37
		c2.31,2.87,3.45,6.56,3.41,11.06l0,0.58c-0.04,4.52-1.24,8.19-3.61,11.02c-2.36,2.82-5.6,4.22-9.71,4.18
		c-4.16-0.04-7.4-1.49-9.72-4.35c-2.31-2.86-3.45-6.56-3.41-11.08L65.85,41.88z M73.4,42.53c-0.02,2.74,0.41,4.95,1.29,6.61
		c0.88,1.67,2.33,2.51,4.33,2.52c1.95,0.02,3.39-0.8,4.31-2.46c0.92-1.66,1.39-3.85,1.42-6.57l0-0.58c0.02-2.67-0.41-4.85-1.32-6.54
		c-0.9-1.69-2.34-2.55-4.3-2.57c-1.97-0.02-3.41,0.81-4.32,2.49c-0.91,1.68-1.38,3.85-1.41,6.52L73.4,42.53z"/>
	<path class="st0" d="M112.66,53.71c-0.89,1.38-1.94,2.43-3.15,3.14c-1.21,0.71-2.58,1.06-4.12,1.05c-3.45-0.03-6.12-1.41-8.01-4.13
		c-1.88-2.72-2.81-6.3-2.77-10.75l0.01-0.58c0.04-4.74,1.03-8.56,2.98-11.45c1.94-2.89,4.65-4.32,8.12-4.29
		c1.4,0.01,2.66,0.35,3.77,1.02c1.12,0.67,2.09,1.61,2.93,2.82l0.09-10.78l-4.03-0.87l0.04-4.89l4.04,0.04l7.57,0.06l-0.33,37.66
		l3.62,0.87l-0.04,4.86l-10.18-0.09L112.66,53.71z M102.18,43.08c-0.02,2.63,0.37,4.7,1.18,6.22c0.81,1.52,2.14,2.28,4.01,2.3
		c1.11,0.01,2.07-0.22,2.88-0.7c0.82-0.48,1.49-1.16,2.01-2.07l0.11-12.76c-0.51-0.97-1.16-1.72-1.96-2.25
		c-0.8-0.54-1.74-0.81-2.83-0.82c-1.85-0.01-3.2,0.85-4.06,2.6c-0.86,1.75-1.31,4.05-1.33,6.88L102.18,43.08z"/>
	<polygon class="st0" points="137.46,52.54 137.79,14.6 125.15,14.49 125.11,18.99 129.82,19.87 129.53,52.47 125.26,53.27 
		125.22,57.75 141.67,57.9 141.71,53.42 	"/>
	<path class="st0" d="M172.09,21.91c0.68-0.77,1.64-1.13,2.93-1.12c0.49,0,0.93,0.03,1.31,0.09l1.02,0.14l0.64-5.5l-0.9-0.19
		c-0.37-0.08-0.72-0.14-1.05-0.19c-0.64-0.1-1.28-0.16-1.89-0.16c-3.21-0.03-5.63,0.81-7.41,2.57c-1.75,1.73-2.66,4.26-2.69,7.51
		l-0.03,3.52l-4.12-0.04l-0.05,5.18l4.12,0.04l-0.17,18.84l-3.61,0.79l-0.04,4.4l14.23,0.13l0.04-4.4l-3.6-0.85L171,33.81l5.5,0.05
		l0.04-5.17l-5.5-0.05l0.03-3.52C171.09,23.74,171.43,22.66,172.09,21.91"/>
	<path class="st0" d="M199.6,44.96l0.04-4.14c0.03-4.04-0.96-7.3-2.96-9.67c-2.01-2.4-4.79-3.59-8.56-3.62
		c-3.73-0.03-6.63,1.31-8.88,4.09c-2.24,2.78-3.4,6.38-3.43,10.72l-0.01,1.1c-0.04,4.15,1.12,7.63,3.43,10.33
		c2.34,2.74,5.4,4.09,9.36,4.12c2.2,0.02,4.22-0.29,6.01-0.92c1.4-0.49,2.61-1.09,3.61-1.77l0.67-0.45l-1.82-4.57l-0.98,0.5
		c-0.86,0.44-1.68,0.78-2.44,1.02c-1.11,0.35-2.52,0.52-4.19,0.51c-1.94-0.02-3.44-0.67-4.56-2.01c-1.1-1.3-1.72-2.98-1.84-4.98
		l0-0.04l0.12-0.36L199.6,44.96z M183.1,39.66l0.01-0.07c0.21-1.88,0.73-3.41,1.56-4.56c0.85-1.18,2.02-1.78,3.47-1.76
		c1.57,0.01,2.76,0.57,3.53,1.65c0.76,1.06,1.13,2.47,1.12,4.21l-0.01,0.94l-9.51-0.08L183.1,39.66z"/>
	<polygon class="st0" points="154.76,52.67 154.76,52.57 154.65,52.57 154.84,31.25 154.85,30.22 154.86,29.08 154.87,28.07 
		154.88,27.06 143.65,26.96 143.61,31.35 147.51,32.2 147.33,52.6 143.42,53.38 143.38,57.76 158.61,57.9 158.65,53.51 	"/>
	<path class="st1" d="M155.45,2.56c0,0,1.46,11.23-2.25,13.72c-2.05,1.37-5.61-3.6-6.97-4.67c-2.74-2.16-5.5-3.63-8.6-4.22
		c0,0,7.3,4.48,10.22,9.1c2.92,4.62,3.13,6.88,2.93,9.17C150.78,25.66,160.63,17.9,155.45,2.56"/>
	<path class="st1" d="M153.77,11.21c0.11,1.62-0.77,3.01-1.99,3.09c-1.21,0.09-2.28-1.16-2.4-2.78c-0.11-1.63,0.78-3.01,1.99-3.1
		C152.59,8.33,153.66,9.58,153.77,11.21"/>
	<path class="st1" d="M8.16,60.2l-0.01,0.86l-0.76,0.14L7.36,64.9c0,0.47,0.12,0.82,0.37,1.05c0.25,0.24,0.59,0.35,1.04,0.36
		c0.45,0,0.8-0.11,1.05-0.34c0.26-0.23,0.39-0.58,0.39-1.05l0.03-3.71l-0.76-0.15l0.01-0.86l2.94,0.03l-0.01,0.86l-0.76,0.14
		l-0.03,3.71c-0.01,0.8-0.28,1.41-0.8,1.84c-0.53,0.43-1.22,0.64-2.07,0.63C7.9,67.4,7.22,67.18,6.7,66.74
		c-0.52-0.44-0.77-1.05-0.77-1.85l0.03-3.71l-0.76-0.15l0.01-0.86l0.76,0.01l1.43,0.01L8.16,60.2z"/>
	<path class="st1" d="M17.95,64.89c-0.01,0.79-0.19,1.42-0.54,1.88c-0.36,0.47-0.87,0.7-1.53,0.69c-0.31,0-0.58-0.07-0.8-0.2
		c-0.23-0.13-0.42-0.32-0.57-0.56l-0.11,0.65l-1.23-0.01l0.06-6.61l-0.76-0.15l0.01-0.86l2.18,0.02l-0.03,2.89
		c0.16-0.21,0.34-0.37,0.55-0.48c0.21-0.11,0.46-0.17,0.74-0.16c0.67,0.01,1.18,0.26,1.53,0.77c0.35,0.51,0.52,1.18,0.51,2.03
		L17.95,64.89z M16.53,64.78c0-0.51-0.07-0.92-0.22-1.22c-0.15-0.3-0.41-0.46-0.77-0.46c-0.22,0-0.41,0.04-0.56,0.13
		c-0.15,0.09-0.27,0.22-0.36,0.4l-0.02,2.23c0.09,0.16,0.21,0.29,0.36,0.37c0.15,0.09,0.34,0.13,0.57,0.13
		c0.37,0,0.63-0.12,0.77-0.38c0.15-0.26,0.23-0.62,0.23-1.1L16.53,64.78z"/>
	<polygon class="st1" points="26.15,63.04 25.62,63.1 24.48,67.45 23.29,67.44 22.34,64.28 22.31,64.28 21.3,67.42 20.11,67.41 
		19.04,63.04 18.51,62.97 18.52,62.11 20.91,62.13 20.9,62.99 20.34,63.09 20.82,65.52 20.85,65.52 21.86,62.14 22.82,62.15 
		23.78,65.55 23.81,65.55 24.33,63.13 23.76,63.02 23.77,62.16 26.16,62.18 	"/>
	<path class="st1" d="M26.57,66.61l0.69-0.14l0.03-3.28l-0.76-0.15l0.01-0.86l2.19,0.02l-0.04,4.28l0.68,0.15l-0.01,0.85l-2.8-0.03
		L26.57,66.61z M28.73,60.94l-1.42-0.01l0.01-1.07l1.43,0.01L28.73,60.94z"/>
	<polygon class="st1" points="31.72,66.42 33.2,66.43 33.26,65.73 34.35,65.74 34.34,67.53 29.95,67.5 29.96,66.66 32.5,63.34 
		31.2,63.33 31.14,64.02 30.05,64.02 30.07,62.21 34.29,62.25 34.29,63.07 	"/>
	<path class="st1" d="M38.41,67.57c-0.04-0.09-0.07-0.18-0.1-0.27c-0.03-0.09-0.05-0.19-0.07-0.28c-0.17,0.19-0.38,0.35-0.62,0.47
		c-0.24,0.12-0.52,0.18-0.83,0.17c-0.52,0-0.93-0.15-1.23-0.43c-0.3-0.28-0.45-0.67-0.45-1.15c0-0.5,0.21-0.88,0.61-1.14
		c0.4-0.27,0.98-0.4,1.75-0.39l0.73,0.01l0.01-0.52c0-0.25-0.07-0.45-0.22-0.59c-0.14-0.14-0.36-0.21-0.65-0.22
		c-0.16,0-0.31,0.02-0.44,0.05c-0.13,0.04-0.23,0.08-0.31,0.13l-0.1,0.57l-1.07-0.01l0.02-1.17c0.26-0.17,0.56-0.32,0.9-0.44
		c0.34-0.12,0.71-0.17,1.1-0.17c0.65,0.01,1.18,0.17,1.59,0.49c0.41,0.32,0.61,0.78,0.6,1.37l-0.02,2.18c0,0.08,0,0.16,0,0.23
		c0,0.07,0.01,0.14,0.02,0.21l0.43,0.06l-0.01,0.85L38.41,67.57z M37.19,66.61c0.22,0,0.41-0.04,0.59-0.13
		c0.18-0.09,0.31-0.21,0.41-0.35l0.01-0.8l-0.73-0.01c-0.3,0-0.53,0.07-0.69,0.21c-0.16,0.14-0.24,0.31-0.24,0.51
		c0,0.18,0.05,0.32,0.17,0.42C36.82,66.55,36.98,66.61,37.19,66.61"/>
	<path class="st1" d="M42.92,66.76l0.68-0.14l0.03-3.28l-0.76-0.15l0.01-0.86l2.08,0.02l0.06,0.76c0.18-0.27,0.4-0.48,0.65-0.62
		c0.26-0.15,0.55-0.22,0.87-0.22c0.53,0.01,0.95,0.18,1.25,0.51c0.3,0.34,0.44,0.86,0.44,1.58l-0.02,2.3l0.68,0.15l-0.01,0.85
		l-2.72-0.02l0.01-0.85l0.61-0.14l0.02-2.29c0-0.35-0.07-0.61-0.21-0.76c-0.14-0.15-0.36-0.23-0.65-0.23
		c-0.19,0-0.36,0.03-0.51,0.11c-0.15,0.08-0.28,0.18-0.38,0.32l-0.03,2.83l0.57,0.15l-0.01,0.85l-2.69-0.02L42.92,66.76z"/>
	<path class="st1" d="M50.16,60.99c0,0.33-0.09,0.67-0.27,1.03c-0.18,0.36-0.39,0.65-0.64,0.87l-0.7-0.39
		c0.13-0.22,0.23-0.46,0.3-0.7c0.07-0.24,0.11-0.52,0.11-0.82l0.01-0.93l1.2,0.01L50.16,60.99z"/>
	<path class="st1" d="M56.17,60.62l-0.01,0.86l-0.76,0.14l-0.03,3.71c0,0.47,0.12,0.82,0.37,1.05c0.25,0.24,0.59,0.35,1.03,0.36
		c0.45,0,0.8-0.11,1.05-0.34c0.26-0.23,0.39-0.58,0.39-1.05l0.03-3.71l-0.76-0.15l0.01-0.86l2.94,0.03l-0.01,0.86l-0.76,0.14
		l-0.03,3.71c-0.01,0.8-0.27,1.41-0.8,1.84c-0.53,0.43-1.22,0.64-2.07,0.63c-0.85-0.01-1.53-0.23-2.05-0.67
		c-0.52-0.44-0.77-1.05-0.77-1.85l0.03-3.71l-0.76-0.15l0.01-0.86l0.76,0.01l1.43,0.01L56.17,60.62z"/>
	<path class="st1" d="M65.96,65.32c-0.01,0.79-0.19,1.42-0.54,1.88c-0.36,0.47-0.87,0.7-1.53,0.69c-0.31,0-0.58-0.07-0.8-0.2
		c-0.23-0.13-0.42-0.32-0.57-0.56l-0.11,0.65l-1.23-0.01l0.06-6.61l-0.75-0.15l0.01-0.86l2.18,0.02l-0.03,2.9
		c0.16-0.21,0.34-0.37,0.55-0.48c0.21-0.11,0.46-0.17,0.74-0.16c0.67,0.01,1.18,0.26,1.53,0.77c0.35,0.51,0.52,1.18,0.51,2.03
		L65.96,65.32z M64.54,65.2c0.01-0.51-0.07-0.92-0.22-1.22c-0.15-0.3-0.4-0.46-0.77-0.46c-0.22,0-0.41,0.04-0.56,0.13
		c-0.15,0.09-0.28,0.22-0.36,0.39l-0.02,2.23c0.09,0.16,0.21,0.29,0.36,0.37c0.15,0.09,0.34,0.13,0.57,0.13
		c0.37,0,0.63-0.12,0.78-0.38c0.15-0.26,0.22-0.62,0.23-1.1L64.54,65.2z"/>
	<path class="st1" d="M70.3,67.18c-0.17,0.25-0.38,0.43-0.63,0.57c-0.25,0.13-0.53,0.2-0.85,0.19c-0.56-0.01-0.99-0.19-1.3-0.55
		c-0.31-0.36-0.47-0.91-0.46-1.67l0.02-2.18l-0.58-0.15l0.01-0.86l0.58,0.01l1.42,0.01l-0.03,3.2c0,0.38,0.06,0.66,0.19,0.83
		c0.13,0.17,0.32,0.25,0.57,0.26c0.23,0,0.42-0.03,0.59-0.1c0.16-0.07,0.3-0.18,0.4-0.31l0.02-2.85l-0.62-0.15l0.01-0.86l0.62,0.01
		l1.43,0.01l-0.04,4.28l0.64,0.15l-0.01,0.85l-1.89-0.02L70.3,67.18z"/>
	<polygon class="st1" points="74.73,66.8 76.21,66.81 76.27,66.11 77.36,66.12 77.34,67.91 72.95,67.87 72.96,67.04 75.51,63.72 
		74.21,63.71 74.15,64.4 73.06,64.39 73.07,62.59 77.3,62.63 77.29,63.45 	"/>
	<path class="st1" d="M78.02,67.06l0.69-0.14l0.03-3.28l-0.76-0.15l0.01-0.86l2.19,0.02l-0.04,4.28l0.68,0.15l-0.01,0.85l-2.8-0.03
		L78.02,67.06z M80.18,61.39l-1.42-0.01l0.01-1.07l1.43,0.01L80.18,61.39z"/>
	<path class="st1" d="M81.15,63.52l0.01-0.86l2.08,0.02l0.05,0.7c0.17-0.25,0.39-0.45,0.64-0.58c0.26-0.14,0.55-0.2,0.89-0.2
		c0.34,0,0.63,0.08,0.87,0.23c0.24,0.15,0.42,0.38,0.54,0.68c0.16-0.28,0.38-0.5,0.64-0.66c0.26-0.16,0.57-0.23,0.92-0.23
		c0.52,0,0.93,0.19,1.23,0.55c0.3,0.36,0.44,0.91,0.44,1.65l-0.02,2.2l0.69,0.15l-0.01,0.85L87.39,68l0.01-0.86l0.62-0.14l0.02-2.2
		c0-0.4-0.06-0.68-0.19-0.84c-0.13-0.16-0.32-0.24-0.58-0.24c-0.2,0-0.38,0.04-0.53,0.13c-0.15,0.09-0.27,0.21-0.36,0.37
		c0,0.06,0,0.11,0,0.16c0,0.04,0,0.09,0,0.13l-0.02,2.47l0.58,0.15L86.94,68l-2.57-0.02l0.01-0.85l0.58-0.14l0.02-2.2
		c0-0.39-0.06-0.67-0.19-0.83c-0.13-0.16-0.32-0.24-0.58-0.25c-0.19,0-0.36,0.03-0.51,0.11c-0.15,0.07-0.27,0.17-0.36,0.31
		l-0.03,2.85l0.61,0.15l-0.01,0.85l-2.72-0.02l0.01-0.85l0.69-0.14l0.03-3.28L81.15,63.52z"/>
	<path class="st1" d="M93.94,68.06c-0.04-0.09-0.07-0.18-0.1-0.27c-0.03-0.09-0.05-0.19-0.07-0.28c-0.17,0.19-0.38,0.35-0.62,0.47
		c-0.24,0.12-0.52,0.18-0.83,0.17c-0.52,0-0.93-0.15-1.23-0.43c-0.3-0.28-0.45-0.67-0.45-1.15c0-0.5,0.21-0.88,0.61-1.14
		c0.4-0.27,0.98-0.4,1.75-0.39l0.73,0.01l0-0.52c0-0.25-0.07-0.45-0.21-0.59c-0.14-0.14-0.36-0.21-0.65-0.22
		c-0.16,0-0.31,0.02-0.44,0.05c-0.13,0.04-0.23,0.08-0.31,0.13l-0.1,0.57l-1.07-0.01l0.02-1.17c0.26-0.17,0.56-0.32,0.9-0.44
		c0.34-0.12,0.71-0.18,1.1-0.17c0.65,0.01,1.18,0.17,1.59,0.49c0.41,0.32,0.61,0.78,0.6,1.38l-0.02,2.18c0,0.08,0,0.16,0,0.23
		c0,0.07,0.01,0.14,0.01,0.21l0.43,0.06l-0.01,0.86L93.94,68.06z M92.71,67.1c0.22,0,0.41-0.04,0.59-0.13
		c0.18-0.09,0.31-0.21,0.41-0.34l0.01-0.81l-0.73-0.01c-0.3,0-0.53,0.07-0.69,0.21c-0.16,0.14-0.24,0.31-0.24,0.51
		c0,0.18,0.05,0.32,0.17,0.42C92.35,67.04,92.51,67.1,92.71,67.1"/>
</g>
</svg>
